<svg width="30" height="36" viewBox="0 0 30 36" fill="none" xmlns="http://www.w3.org/2000/svg">
<path d="M15 0.75C16.6178 0.74994 18.1726 1.37722 19.3375 2.49992C20.5023 3.62262 21.1865 5.15328 21.246 6.77L21.25 7.001L28 7C28.4515 7.0002 28.8855 7.17491 29.2112 7.48761C29.5369 7.80032 29.7291 8.2268 29.7477 8.67794C29.7663 9.12907 29.6098 9.56993 29.311 9.90837C29.0121 10.2468 28.594 10.4566 28.144 10.494L28 10.5H26.833L25.206 32.07C25.1253 33.1387 24.6438 34.1375 23.8579 34.8663C23.072 35.5951 22.0398 36 20.968 36H9.032C7.96021 36 6.92799 35.5951 6.14211 34.8663C5.35622 34.1375 4.8747 33.1387 4.794 32.07L3.166 10.5H2C1.56065 10.5 1.13739 10.3347 0.814292 10.037C0.491194 9.73924 0.291901 9.33088 0.256 8.893L0.25 8.75C0.250037 8.31065 0.415331 7.88739 0.713048 7.56429C1.01076 7.24119 1.41912 7.0419 1.857 7.006L2 7H8.75C8.75 3.702 11.305 1 14.544 0.766L14.771 0.754L15 0.75ZM18.75 13.75C18.4405 13.7499 18.142 13.8645 17.9122 14.0718C17.6824 14.279 17.5377 14.5642 17.506 14.872L17.5 15V27L17.506 27.128C17.5364 27.4369 17.6805 27.7234 17.9105 27.9318C18.1404 28.1402 18.4397 28.2557 18.75 28.2557C19.0603 28.2557 19.3596 28.1402 19.5895 27.9318C19.8195 27.7234 19.9636 27.4369 19.994 27.128L20 27V15L19.994 14.872C19.9623 14.5642 19.8176 14.279 19.5878 14.0718C19.358 13.8645 19.0595 13.7499 18.75 13.75V13.75ZM11.25 13.75C10.9405 13.7499 10.642 13.8645 10.4122 14.0718C10.1824 14.279 10.0377 14.5642 10.006 14.872L10 15V27L10.006 27.128C10.0364 27.4369 10.1805 27.7234 10.4105 27.9318C10.6404 28.1402 10.9397 28.2557 11.25 28.2557C11.5603 28.2557 11.8596 28.1402 12.0895 27.9318C12.3195 27.7234 12.4636 27.4369 12.494 27.128L12.5 27V15L12.494 14.872C12.4623 14.5642 12.3176 14.279 12.0878 14.0718C11.858 13.8645 11.5595 13.7499 11.25 13.75V13.75ZM15.168 4.255L15 4.25C14.2997 4.24997 13.6258 4.51709 13.1157 4.99689C12.6056 5.47669 12.2978 6.13302 12.255 6.832L12.25 7.001L17.75 7C17.75 6.29971 17.4829 5.62579 17.0031 5.1157C16.5233 4.60561 15.867 4.29778 15.168 4.255V4.255Z" fill="black"/>
</svg>
