<svg width="29" height="30" viewBox="0 0 29 30" fill="none" xmlns="http://www.w3.org/2000/svg">
<path d="M17.154 30H11.8457C11.5131 30.0001 11.1905 29.8832 10.9313 29.6687C10.6722 29.4543 10.4921 29.1552 10.4209 28.821L9.82735 25.995C9.03556 25.6381 8.28478 25.1919 7.58881 24.6645L4.90985 25.542C4.59276 25.646 4.25061 25.6353 3.94024 25.5117C3.62986 25.3881 3.36993 25.159 3.2036 24.8625L0.543602 20.136C0.379022 19.8392 0.317243 19.4937 0.368372 19.1561C0.419501 18.8185 0.580511 18.5087 0.82506 18.2775L2.90318 16.3275C2.80868 15.4442 2.80868 14.5528 2.90318 13.6695L0.82506 11.724C0.580164 11.4927 0.418935 11.1826 0.367798 10.8447C0.316661 10.5067 0.378649 10.161 0.543602 9.864L3.19777 5.1345C3.36409 4.83797 3.62403 4.60888 3.9344 4.48528C4.24478 4.36167 4.58692 4.35099 4.90402 4.455L7.58298 5.3325C7.93881 5.0625 8.30923 4.8105 8.69131 4.5825C9.06027 4.3695 9.43943 4.176 9.82735 4.0035L10.4224 1.1805C10.4932 0.846293 10.6729 0.547028 10.9318 0.332319C11.1907 0.117611 11.5131 0.000356134 11.8457 -3.8147e-06H17.154C17.4866 0.000356134 17.809 0.117611 18.0679 0.332319C18.3268 0.547028 18.5065 0.846293 18.5774 1.1805L19.1782 4.005C19.5865 4.191 19.9861 4.3995 20.3726 4.632C20.7328 4.8465 21.0813 5.082 21.4167 5.3355L24.0971 4.458C24.414 4.35437 24.7559 4.36525 25.0659 4.48884C25.376 4.61242 25.6357 4.84129 25.8019 5.1375L28.4561 9.867C28.7944 10.4775 28.6778 11.25 28.1746 11.7255L26.0965 13.6755C26.191 14.5588 26.191 15.4502 26.0965 16.3335L28.1746 18.2835C28.6778 18.7605 28.7944 19.5315 28.4561 20.142L25.8019 24.8715C25.6356 25.168 25.3757 25.3971 25.0653 25.5207C24.7549 25.6443 24.4128 25.655 24.0957 25.551L21.4167 24.6735C20.7213 25.2005 19.971 25.6463 19.1796 26.0025L18.5774 28.821C18.5062 29.1549 18.3263 29.4538 18.0675 29.6683C17.8087 29.8827 17.4864 29.9997 17.154 30V30ZM14.494 9C12.9469 9 11.4632 9.63214 10.3692 10.7574C9.27527 11.8826 8.66068 13.4087 8.66068 15C8.66068 16.5913 9.27527 18.1174 10.3692 19.2426C11.4632 20.3679 12.9469 21 14.494 21C16.0411 21 17.5248 20.3679 18.6188 19.2426C19.7128 18.1174 20.3274 16.5913 20.3274 15C20.3274 13.4087 19.7128 11.8826 18.6188 10.7574C17.5248 9.63214 16.0411 9 14.494 9V9Z" fill="black"/>
</svg>
