<svg width="20" height="19" viewBox="0 0 20 19" fill="none" xmlns="http://www.w3.org/2000/svg">
<path d="M8.13737 1.47109C8.52373 0.812206 9.47627 0.812206 9.86263 1.47109L12.1215 5.32322C12.2567 5.55377 12.4785 5.72061 12.7375 5.7865L16.9972 6.87028C17.7041 7.05014 17.9868 7.90195 17.5277 8.4688L14.6415 12.0322C14.4815 12.2298 14.4028 12.4808 14.4213 12.7344L14.7579 17.3494C14.8125 18.0984 14.0529 18.638 13.3637 18.3401L9.39683 16.6251C9.1436 16.5156 8.8564 16.5156 8.60317 16.6251L4.63632 18.3401C3.94706 18.638 3.18752 18.0984 3.24214 17.3494L3.57873 12.7344C3.59722 12.4808 3.51846 12.2298 3.35846 12.0322L0.472281 8.4688C0.0131665 7.90195 0.295864 7.05014 1.0028 6.87028L5.26248 5.7865C5.52149 5.72061 5.74334 5.55377 5.87853 5.32322L8.13737 1.47109Z" fill="#DA623F"/>
</svg>
