<svg width="28" height="26" viewBox="0 0 28 26" fill="none" xmlns="http://www.w3.org/2000/svg">
<path d="M12.1404 1.44595C12.528 0.793949 13.472 0.793948 13.8596 1.44595L17.4532 7.49102C17.5893 7.71994 17.8111 7.88512 18.0694 7.94995L24.7834 9.63494C25.4951 9.81355 25.7785 10.6724 25.3129 11.2395L20.8034 16.7313C20.6404 16.9298 20.5601 17.1835 20.579 17.4397L21.1079 24.5929C21.1631 25.3401 20.4075 25.8804 19.7183 25.5865L13.3923 22.8888C13.1417 22.7819 12.8583 22.7819 12.6077 22.8888L6.28165 25.5865C5.59251 25.8804 4.83686 25.3401 4.8921 24.5929L5.42101 17.4397C5.43995 17.1835 5.35958 16.9298 5.19658 16.7313L0.687131 11.2395C0.221481 10.6724 0.504854 9.81355 1.21656 9.63494L7.93061 7.94994C8.18891 7.88512 8.41069 7.71994 8.54677 7.49102L12.1404 1.44595Z" fill="#DA623F"/>
</svg>
