<svg width="153" height="37" viewBox="0 0 153 37" fill="none" xmlns="http://www.w3.org/2000/svg">
<path d="M5.8416 8.84802C5.28015 8.84802 4.82617 9.30201 4.82617 9.86345V12.6588C4.82617 13.2202 5.28015 13.6742 5.8416 13.6742H8.63692C9.19836 13.6742 9.65235 13.2202 9.65235 12.6588V9.86345C9.65235 9.30201 9.19836 8.84802 8.63692 8.84802H5.8416ZM6.54558 9.65238H7.93294C8.43776 9.65238 8.84798 10.0626 8.84798 10.5674V11.9548C8.84798 12.4596 8.43776 12.8698 7.93294 12.8698H6.54558C6.04076 12.8698 5.63053 12.4596 5.63053 11.9548V10.5674C5.63053 10.0626 6.04076 9.65238 6.54558 9.65238Z" fill="white"/>
<path d="M6.97448 10.4826H7.47737C7.77546 10.4826 8.01693 10.7241 8.01693 11.0222V11.5251C8.01693 11.8232 7.77546 12.0648 7.47737 12.0648H6.97448C6.67638 12.0648 6.43475 11.8232 6.43475 11.5251V11.0222C6.43475 10.7241 6.67638 10.4826 6.97448 10.4826Z" fill="#FFFDFD"/>
<path d="M15.4941 8.84802C14.9326 8.84802 14.4786 9.30201 14.4786 9.86345V12.6588C14.4786 13.2202 14.9326 13.6742 15.4941 13.6742H18.2894C18.8508 13.6742 19.3048 13.2202 19.3048 12.6588V9.86345C19.3048 9.30201 18.8508 8.84802 18.2894 8.84802H15.4941ZM16.198 9.65238H17.5854C18.0902 9.65238 18.5004 10.0626 18.5004 10.5674V11.9548C18.5004 12.4596 18.0902 12.8698 17.5854 12.8698H16.198C15.6932 12.8698 15.283 12.4596 15.283 11.9548V10.5674C15.283 10.0626 15.6932 9.65238 16.198 9.65238Z" fill="#FFFDFD"/>
<path d="M16.6269 10.4826H17.1298C17.4279 10.4826 17.6693 10.7241 17.6693 11.0222V11.5251C17.6693 11.8232 17.4279 12.0648 17.1298 12.0648H16.6269C16.3288 12.0648 16.0872 11.8232 16.0872 11.5251V11.0222C16.0872 10.7241 16.3288 10.4826 16.6269 10.4826Z" fill="#FFFDFD"/>
<path d="M5.8416 17.696C5.28015 17.696 4.82617 18.15 4.82617 18.7115V21.5068C4.82617 22.0682 5.28015 22.5222 5.8416 22.5222H8.63692C9.19836 22.5222 9.65235 22.0682 9.65235 21.5068V18.7115C9.65235 18.15 9.19836 17.696 8.63692 17.696H5.8416ZM6.54558 18.5004H7.93294C8.43776 18.5004 8.84798 18.9106 8.84798 19.4154V20.8028C8.84798 21.3076 8.43776 21.7179 7.93294 21.7179H6.54558C6.04076 21.7179 5.63053 21.3076 5.63053 20.8028V19.4154C5.63053 18.9106 6.04076 18.5004 6.54558 18.5004Z" fill="#FFFDFD"/>
<path d="M6.97448 19.3307H7.47737C7.77546 19.3307 8.01693 19.5721 8.01693 19.8702V20.3731C8.01693 20.6712 7.77546 20.9128 7.47737 20.9128H6.97448C6.67638 20.9128 6.43475 20.6712 6.43475 20.3731V19.8702C6.43475 19.5721 6.67638 19.3307 6.97448 19.3307Z" fill="#FFFDFD"/>
<path d="M16.0872 19.9082C16.0872 20.7126 16.0872 19.9082 16.0872 20.7126C16.0872 21.5169 16.8915 21.5169 16.8915 20.7126C16.8915 19.9082 16.8915 20.7126 16.8915 19.9082C16.8915 19.1038 16.0872 19.1038 16.0872 19.9082Z" fill="#FFFDFD"/>
<path d="M10.4569 13.6742C10.4569 14.4786 11.2613 14.4786 11.2613 13.6742C11.2613 12.8698 11.2613 11.2508 11.2613 11.2508C11.2613 10.8123 11.6168 10.4567 12.0553 10.4567H12.1467C12.5462 10.4567 12.87 10.1329 12.87 9.73346V9.62842C12.87 9.19744 12.5206 8.84802 12.0896 8.84802H11.2338C10.8047 8.84802 10.4569 9.19583 10.4569 9.62488C10.4569 9.62488 10.4569 12.8698 10.4569 13.6742Z" fill="#FFFDFD"/>
<path d="M5.62648 16.8914C5.62648 16.8914 7.25049 16.8914 8.05003 16.8914C8.84956 16.8914 8.84956 16.087 9.65393 16.087C10.4583 16.087 9.78665 16.087 9.78665 16.087C10.1576 16.087 10.4583 15.7863 10.4583 15.4154V15.2776C10.4583 14.8362 10.1003 14.4783 9.65891 14.4783H8.01029C7.58527 14.4783 7.24084 14.8227 7.24084 15.2477V15.3763C7.24084 15.7688 6.92263 16.087 6.53011 16.087H5.63211C4.82775 16.087 4.82775 16.8914 5.62648 16.8914Z" fill="#FFFDFD"/>
<path d="M11.2621 19.3049C10.4577 19.3049 10.4577 20.9137 11.2621 20.9137C11.6855 20.9137 11.2621 20.9137 12.0664 20.9137C12.8708 20.9137 12.8708 21.3371 12.8708 21.718C12.8708 22.5224 12.8708 21.718 12.8708 22.5224C12.8708 23.3267 13.6752 23.3267 13.6752 22.5224V21.7291V21.0924C13.6752 20.288 13.273 20.5562 12.8708 20.1093C12.4686 19.6624 12.8708 19.3049 12.0664 19.3049C11.2621 19.3049 12.0664 19.3049 11.2621 19.3049Z" fill="#FFFDFD"/>
<path d="M18.4177 20.9138H18.5831C18.9816 20.9138 19.3048 21.237 19.3048 21.6355V21.8009C19.3048 22.1994 18.9816 22.5225 18.5831 22.5225H18.4177C18.0192 22.5225 17.696 22.1994 17.696 21.8009V21.6355C17.696 21.237 18.0192 20.9138 18.4177 20.9138Z" fill="#FFFDFD"/>
<path d="M12.2162 14.4783C11.6897 14.4783 11.261 14.8213 11.261 15.2424V17.7359C11.261 18.1571 11.6897 18.5001 12.2162 18.5001H14.5137C14.9398 18.5001 15.2828 18.1571 15.2828 17.731V16.4792C15.2828 16.2622 15.458 16.087 15.675 16.087H15.695C15.912 16.087 16.0872 16.2622 16.0872 16.4792V17.731C16.0872 18.1571 16.4301 18.5001 16.8563 18.5001H17.058C17.4103 18.5001 17.6959 18.2145 17.6959 17.8622V17.6957C17.696 17.6957 17.6959 17.2647 17.6959 16.8914C17.6959 16.4641 17.6959 16.087 18.5002 16.087C19.3046 16.087 19.3046 15.2826 18.5002 15.2826C17.6959 15.2826 16.8915 15.2826 16.8915 15.2826C16.8915 15.2826 17.6959 15.2826 16.8915 15.2826C16.0872 15.2826 16.0872 14.4783 15.2828 14.4783H15.1621C14.7855 14.4783 14.4784 14.7854 14.4784 15.162V16.1624C14.4784 16.5661 14.1532 16.8914 13.7495 16.8914H13.5986C13.195 16.8914 12.8697 16.5661 12.8697 16.1624V15.0313C12.8697 14.7265 12.6215 14.4783 12.3166 14.4783H12.2162Z" fill="#FFFDFD"/>
<path d="M18.5005 18.2993C18.5005 19.1037 18.5005 18.2993 18.5005 19.1037C18.5005 19.908 19.3049 19.908 19.3049 19.1037C19.3049 18.2993 19.3049 19.1037 19.3049 18.2993C19.3049 17.495 18.5005 17.495 18.5005 18.2993Z" fill="#FFFDFD"/>
<path d="M45.998 23.5585C46.6447 23.9964 47.3511 24.4217 48.1173 24.8347C48.8834 25.2475 49.3908 25.5758 49.6396 25.8197C49.8883 26.0634 50.0127 26.4091 50.0127 26.8568C50.0127 27.1754 49.866 27.4937 49.5724 27.8121C49.2788 28.1305 48.9231 28.2897 48.5053 28.2897C48.167 28.2897 47.7566 28.1802 47.274 27.9614C46.7914 27.7424 46.2243 27.4241 45.5726 27.0061C44.9209 26.5882 44.207 26.1007 43.4309 25.5435C41.9882 26.2798 40.2172 26.648 38.1176 26.648C36.4162 26.648 34.8915 26.3768 33.5432 25.8345C32.1951 25.2924 31.0632 24.5112 30.1478 23.4914C29.2325 22.4715 28.5435 21.2601 28.0808 19.8573C27.6181 18.4543 27.3868 16.927 27.3868 15.2753C27.3868 13.5939 27.6281 12.0516 28.1107 10.6486C28.5932 9.24582 29.2922 8.05182 30.2075 7.0668C31.123 6.08177 32.2374 5.32809 33.5508 4.80574C34.8641 4.28338 36.3565 4.02213 38.0282 4.02213C40.2966 4.02213 42.2443 4.48238 43.8712 5.40273C45.498 6.32308 46.7293 7.63146 47.565 9.32786C48.4007 11.0243 48.8187 13.0167 48.8187 15.3052C48.8187 18.7777 47.8784 21.5287 45.998 23.5585ZM42.5205 21.1407C43.1373 20.4343 43.5926 19.5986 43.886 18.6334C44.1796 17.6683 44.3263 16.5489 44.3263 15.2753C44.3263 13.6733 44.0676 12.2855 43.5503 11.1113C43.0329 9.93724 42.2942 9.04923 41.3339 8.44724C40.3738 7.84526 39.2719 7.54443 38.0282 7.54443C37.1426 7.54443 36.3242 7.71109 35.5731 8.04426C34.8218 8.37759 34.1751 8.86278 33.6328 9.49951C33.0905 10.1362 32.6628 10.9496 32.3492 11.9396C32.0358 12.9296 31.8791 14.0416 31.8791 15.2753C31.8791 17.7926 32.4662 19.7304 33.6402 21.0884C34.8144 22.4467 36.2969 23.1257 38.0879 23.1257C38.8242 23.1257 39.5803 22.9715 40.3563 22.6631C39.8888 22.3148 39.3042 21.9666 38.6028 21.6184C37.9012 21.2701 37.4212 21.0014 37.1625 20.8124C36.9038 20.6234 36.7745 20.3547 36.7745 20.0064C36.7745 19.708 36.8988 19.4443 37.1476 19.2154C37.3963 18.9866 37.6699 18.8723 37.9685 18.8723C38.8739 18.8723 40.3912 19.6284 42.5205 21.1407Z" fill="#FFFDFD"/>
<path d="M58.167 16.922H56.6149V23.9516C56.6149 24.8768 56.4109 25.5584 56.003 25.9961C55.595 26.434 55.0627 26.653 54.406 26.653C53.6996 26.653 53.1523 26.4241 52.7643 25.9664C52.3763 25.5087 52.1823 24.8371 52.1823 23.9516V7.11648C52.1823 6.16138 52.3962 5.46979 52.824 5.04203C53.2519 4.61411 53.9433 4.40015 54.8986 4.40015H62.1071C63.1021 4.40015 63.9528 4.44246 64.6594 4.52708C65.3657 4.61169 66.0025 4.78334 66.5697 5.04203C67.2562 5.33047 67.8631 5.74343 68.3905 6.28075C68.9178 6.81806 69.3182 7.44241 69.5919 8.15378C69.8655 8.86516 70.0024 9.61885 70.0024 10.4148C70.0024 12.0466 69.5422 13.35 68.6218 14.3252C67.7015 15.3002 66.306 15.9916 64.4354 16.3996C65.2214 16.8176 65.9727 17.4344 66.6891 18.2503C67.4055 19.0662 68.0448 19.9343 68.6069 20.8547C69.1691 21.775 69.6068 22.6058 69.9202 23.3471C70.2338 24.0884 70.3904 24.5983 70.3904 24.8768C70.3904 25.1654 70.2984 25.4514 70.1142 25.735C69.9302 26.0187 69.6791 26.2424 69.3605 26.4067C69.0422 26.5708 68.6741 26.653 68.2561 26.653C67.7587 26.653 67.3408 26.536 67.0025 26.3021C66.6642 26.0684 66.3731 25.7724 66.1294 25.4141C65.8857 25.056 65.5548 24.5287 65.1368 23.8321L63.3608 20.877C62.7241 19.7926 62.1544 18.9667 61.652 18.3996C61.1494 17.8324 60.6396 17.4443 60.1223 17.2354C59.6047 17.0265 58.9531 16.922 58.167 16.922ZM60.7043 7.72844H56.6149V13.7431H60.5849C61.6494 13.7431 62.545 13.651 63.2714 13.4669C63.9977 13.2829 64.5524 12.9695 64.9354 12.5266C65.3185 12.0839 65.5101 11.4745 65.5101 10.6985C65.5101 10.0915 65.3558 9.55675 65.0474 9.09408C64.739 8.63141 64.3111 8.28554 63.7638 8.05678C63.2464 7.83783 62.2266 7.72844 60.7043 7.72844Z" fill="#FFFDFD"/>
<path d="M90.4006 26.2798H83.7142C82.7492 26.2798 82.0601 26.0634 81.6472 25.6306C81.2342 25.1977 81.0278 24.5087 81.0278 23.5634V7.11648C81.0278 6.15141 81.2392 5.4574 81.6622 5.03447C82.0849 4.61169 82.769 4.40015 83.7142 4.40015H90.8036C91.8483 4.40015 92.7537 4.46482 93.5197 4.59416C94.286 4.7235 94.9724 4.97237 95.5794 5.34045C96.0968 5.64884 96.5544 6.03944 96.9524 6.51208C97.3504 6.98472 97.654 7.50707 97.8628 8.07914C98.0718 8.6512 98.1763 9.25576 98.1763 9.89249C98.1763 12.0815 97.0818 13.6833 94.8928 14.6982C97.7684 15.6136 99.2061 17.3946 99.2061 20.0413C99.2061 21.265 98.8927 22.367 98.2658 23.3471C97.639 24.3271 96.7933 25.051 95.7287 25.5187C95.062 25.7973 94.2958 25.9937 93.4303 26.1081C92.5646 26.2227 91.5547 26.2798 90.4006 26.2798ZM90.0722 16.5639H85.4605V22.9516H90.2214C93.2163 22.9516 94.7137 21.872 94.7137 19.713C94.7137 18.6086 94.3257 17.8076 93.5497 17.31C92.7736 16.8126 91.6144 16.5639 90.0722 16.5639ZM85.4605 7.72844V13.3849H89.52C90.6244 13.3849 91.4776 13.2805 92.0796 13.0715C92.6814 12.8625 93.1417 12.4645 93.46 11.8775C93.7088 11.4596 93.8333 10.9919 93.8333 10.4745C93.8333 9.37014 93.4401 8.6364 92.6541 8.27315C91.8681 7.91006 90.6692 7.72844 89.0573 7.72844H85.4605Z" fill="#FFFDFD"/>
<path d="M117.622 18.3611C117.622 19.575 117.433 20.6944 117.055 21.7191C116.677 22.744 116.13 23.6245 115.414 24.3608C114.697 25.0971 113.841 25.6618 112.846 26.0548C111.851 26.4478 110.732 26.6444 109.488 26.6444C108.255 26.6444 107.145 26.4454 106.16 26.0474C105.175 25.6494 104.322 25.0798 103.601 24.3385C102.879 23.5972 102.332 22.7217 101.959 21.7117C101.586 20.7018 101.399 19.585 101.399 18.3611C101.399 17.1273 101.588 15.998 101.966 14.9733C102.345 13.9483 102.887 13.0729 103.593 12.3465C104.3 11.6202 105.155 11.0605 106.16 10.6675C107.165 10.2745 108.275 10.0779 109.488 10.0779C110.722 10.0779 111.842 10.2769 112.846 10.6749C113.851 11.0729 114.712 11.64 115.429 12.3763C116.145 13.1126 116.69 13.9882 117.063 15.003C117.436 16.018 117.622 17.1373 117.622 18.3611ZM113.533 18.3611C113.533 16.6994 113.167 15.406 112.436 14.4807C111.705 13.5553 110.722 13.0927 109.488 13.0927C108.692 13.0927 107.991 13.2992 107.384 13.712C106.777 14.125 106.309 14.7344 105.981 15.5403C105.653 16.3463 105.489 17.2866 105.489 18.3611C105.489 19.4257 105.65 20.3561 105.974 21.152C106.297 21.948 106.76 22.5574 107.362 22.9804C107.964 23.4031 108.673 23.6147 109.488 23.6147C110.722 23.6147 111.705 23.1494 112.436 22.2191C113.167 21.2888 113.533 20.0028 113.533 18.3611Z" fill="#FFFDFD"/>
<path d="M135.697 18.3611C135.697 19.575 135.507 20.6944 135.129 21.7191C134.751 22.744 134.204 23.6245 133.488 24.3608C132.771 25.0971 131.917 25.6618 130.921 26.0548C129.927 26.4478 128.807 26.6444 127.563 26.6444C126.329 26.6444 125.22 26.4454 124.235 26.0474C123.25 25.6494 122.396 25.0798 121.675 24.3385C120.954 23.5972 120.406 22.7217 120.033 21.7117C119.66 20.7018 119.474 19.585 119.474 18.3611C119.474 17.1273 119.663 15.998 120.041 14.9733C120.419 13.9483 120.961 13.0729 121.668 12.3465C122.374 11.6202 123.23 11.0605 124.235 10.6675C125.239 10.2745 126.349 10.0779 127.563 10.0779C128.797 10.0779 129.915 10.2769 130.921 10.6749C131.926 11.0729 132.787 11.64 133.503 12.3763C134.219 13.1126 134.764 13.9882 135.137 15.003C135.511 16.018 135.697 17.1373 135.697 18.3611ZM131.608 18.3611C131.608 16.6994 131.241 15.406 130.511 14.4807C129.779 13.5553 128.797 13.0927 127.563 13.0927C126.767 13.0927 126.065 13.2992 125.458 13.712C124.851 14.125 124.384 14.7344 124.055 15.5403C123.727 16.3463 123.563 17.2866 123.563 18.3611C123.563 19.4257 123.725 20.3561 124.048 21.152C124.371 21.948 124.834 22.5574 125.436 22.9804C126.038 23.4031 126.747 23.6147 127.563 23.6147C128.797 23.6147 129.779 23.1494 130.511 22.2191C131.241 21.2888 131.608 20.0028 131.608 18.3611Z" fill="#FFFDFD"/>
<path d="M148.668 24.7824L145.071 18.8723L142.862 20.9617V24.2004C142.862 24.9864 142.655 25.5908 142.243 26.0137C141.83 26.4365 141.355 26.648 140.818 26.648C140.19 26.648 139.698 26.4391 139.339 26.0211C138.982 25.6032 138.802 24.9864 138.802 24.1704V6.79814C138.802 5.89275 138.977 5.20374 139.325 4.73109C139.672 4.25845 140.171 4.02213 140.818 4.02213C141.443 4.02213 141.942 4.23609 142.309 4.66385C142.677 5.09177 142.862 5.72351 142.862 6.55924V16.4395L147.444 11.6336C148.01 11.0368 148.443 10.6288 148.742 10.4099C149.041 10.1909 149.403 10.0815 149.831 10.0815C150.34 10.0815 150.763 10.2432 151.101 10.5666C151.438 10.8899 151.607 11.2955 151.607 11.7829C151.607 12.3799 151.056 13.1759 149.95 14.1709L147.787 16.1559L151.966 22.7227C152.275 23.2103 152.495 23.581 152.631 23.8347C152.764 24.0884 152.832 24.3297 152.832 24.5585C152.832 25.2052 152.655 25.7151 152.302 26.0884C151.948 26.4614 151.484 26.648 150.906 26.648C150.409 26.648 150.026 26.5137 149.757 26.245C149.489 25.9764 149.125 25.4888 148.668 24.7824Z" fill="#FFFDFD"/>
<path d="M1.57349 0C0.705587 0 0 0.705587 0 1.57349V32.0588C0 33.8604 1.43112 35.3199 3.21745 35.382V36.6236C3.21745 37.0272 3.43414 37.12 3.70007 36.8348L4.59484 35.8746C4.72144 35.7388 4.93074 35.7388 5.05751 35.8746L5.95228 36.8348C6.2182 37.12 6.4349 37.0272 6.4349 36.6236V35.3919C10.4648 35.3919 21.1734 35.3919 22.5221 35.3919C24.1309 35.3919 24.1309 33.7832 22.5221 33.7832C21.1885 33.7832 10.6565 33.7832 6.4349 33.7832V32.4711H22.6629C22.8066 32.4711 22.9243 32.3616 22.9243 32.2247V32.094C22.9243 31.9571 22.8066 31.8478 22.6629 31.8478H3.1872C3.04354 31.8478 2.93093 31.9571 2.93093 32.094V32.2247C2.93093 32.3616 3.04354 32.4711 3.1872 32.4711H3.21745V33.7832C3.21648 33.7832 3.1169 33.7832 3.1169 33.7832C2.28294 33.7832 1.60872 33.109 1.60872 32.275V32.0739C1.60872 31.24 2.28294 30.5658 3.1169 30.5658H22.5976C23.4436 30.5658 24.1309 29.8785 24.1309 29.0325V1.51317C24.1309 0.67663 23.4542 0 22.6177 0H1.57349ZM4.75571 7.23926H19.3752C20.2249 7.23926 20.9134 7.9278 20.9134 8.77752V22.5926C20.9134 23.4423 20.2249 24.1309 19.3752 24.1309H4.75571C3.90598 24.1309 3.21745 23.4423 3.21745 22.5926V8.77752C3.21745 7.9278 3.90598 7.23926 4.75571 7.23926Z" fill="#FFFDFD"/>
</svg>
